<svg width="1440" height="496" viewBox="0 0 1440 496" fill="none" xmlns="http://www.w3.org/2000/svg">
<g clip-path="url(#clip0_283_997)">
<g opacity="0.1" filter="url(#filter0_f_283_997)">
<rect width="1917" height="1435.79" transform="translate(1676.39 -711) rotate(90)" fill="url(#paint0_linear_283_997)"/>
<rect width="117.816" height="117.816" transform="translate(1556.58 -111.937) rotate(90)" fill="#151718"/>
<rect width="117.816" height="117.816" transform="translate(1556.58 7.87506) rotate(90)" fill="#151718"/>
<rect width="117.816" height="117.816" transform="translate(1556.58 127.688) rotate(90)" fill="#151718"/>
<rect width="117.816" height="117.816" transform="translate(1556.58 247.5) rotate(90)" fill="#151718"/>
<rect width="117.816" height="117.816" transform="translate(1556.58 367.312) rotate(90)" fill="#151718"/>
<rect width="117.816" height="117.816" transform="translate(1556.58 487.125) rotate(90)" fill="#151718"/>
<rect width="117.816" height="117.816" transform="translate(1436.76 -111.937) rotate(90)" fill="#151718"/>
<rect width="117.816" height="117.816" transform="translate(1436.76 7.87506) rotate(90)" fill="#151718"/>
<rect width="117.816" height="117.816" transform="translate(1436.76 127.688) rotate(90)" fill="#151718"/>
<rect width="117.816" height="117.816" transform="translate(1436.76 247.5) rotate(90)" fill="#151718"/>
<rect width="117.816" height="117.816" transform="translate(1436.76 367.312) rotate(90)" fill="#151718"/>
<rect width="117.816" height="117.816" transform="translate(1436.76 487.125) rotate(90)" fill="#151718"/>
<rect width="117.816" height="117.816" transform="translate(1316.95 -111.937) rotate(90)" fill="#151718"/>
<rect width="117.816" height="117.816" transform="translate(1316.95 7.87506) rotate(90)" fill="#151718"/>
<rect width="117.816" height="117.816" transform="translate(1316.95 127.688) rotate(90)" fill="#151718"/>
<rect width="117.816" height="117.816" transform="translate(1316.95 247.5) rotate(90)" fill="#151718"/>
<rect width="117.816" height="117.816" transform="translate(1316.95 367.312) rotate(90)" fill="#151718"/>
<rect width="117.816" height="117.816" transform="translate(1316.95 487.125) rotate(90)" fill="#151718"/>
<rect width="117.816" height="117.816" transform="translate(1197.13 -111.937) rotate(90)" fill="#151718"/>
<rect width="117.816" height="117.816" transform="translate(1197.13 7.87506) rotate(90)" fill="#151718"/>
<rect width="117.816" height="117.816" transform="translate(1197.13 127.688) rotate(90)" fill="#151718"/>
<rect width="117.816" height="117.816" transform="translate(1197.13 247.5) rotate(90)" fill="#151718"/>
<rect width="117.816" height="117.816" transform="translate(1197.13 367.312) rotate(90)" fill="#151718"/>
<rect width="117.816" height="117.816" transform="translate(1197.13 487.125) rotate(90)" fill="#151718"/>
<rect width="117.816" height="117.816" transform="translate(1077.32 -111.937) rotate(90)" fill="#151718"/>
<rect width="117.816" height="117.816" transform="translate(1077.32 7.87506) rotate(90)" fill="#151718"/>
<rect width="117.816" height="117.816" transform="translate(1077.32 127.688) rotate(90)" fill="#151718"/>
<rect width="117.816" height="117.816" transform="translate(1077.32 247.5) rotate(90)" fill="#151718"/>
<rect width="117.816" height="117.816" transform="translate(1077.32 367.312) rotate(90)" fill="#151718"/>
<rect width="117.816" height="117.816" transform="translate(1077.32 487.125) rotate(90)" fill="#151718"/>
<rect width="117.816" height="117.816" transform="translate(957.501 -111.938) rotate(90)" fill="#151718"/>
<rect width="117.816" height="117.816" transform="translate(957.501 7.875) rotate(90)" fill="#151718"/>
<rect width="117.816" height="117.816" transform="translate(957.501 127.688) rotate(90)" fill="#151718"/>
<rect width="117.816" height="117.816" transform="translate(957.501 247.5) rotate(90)" fill="#151718"/>
<rect width="117.816" height="117.816" transform="translate(957.501 367.312) rotate(90)" fill="#151718"/>
<rect width="117.816" height="117.816" transform="translate(957.501 487.125) rotate(90)" fill="#151718"/>
<rect width="117.816" height="117.816" transform="translate(837.685 -111.938) rotate(90)" fill="#151718"/>
<rect width="117.816" height="117.816" transform="translate(837.685 7.875) rotate(90)" fill="#151718"/>
<rect width="117.816" height="117.816" transform="translate(837.685 127.688) rotate(90)" fill="#151718"/>
<rect width="117.816" height="117.816" transform="translate(837.685 247.5) rotate(90)" fill="#151718"/>
<rect width="117.816" height="117.816" transform="translate(837.685 367.312) rotate(90)" fill="#151718"/>
<rect width="117.816" height="117.816" transform="translate(837.685 487.125) rotate(90)" fill="#151718"/>
<rect width="117.816" height="117.816" transform="translate(717.87 -111.938) rotate(90)" fill="#151718"/>
<rect width="117.816" height="117.816" transform="translate(717.87 7.875) rotate(90)" fill="#151718"/>
<rect width="117.816" height="117.816" transform="translate(717.87 127.688) rotate(90)" fill="#151718"/>
<rect width="117.816" height="117.816" transform="translate(717.87 247.5) rotate(90)" fill="#151718"/>
<rect width="117.816" height="117.816" transform="translate(717.87 367.312) rotate(90)" fill="#151718"/>
<rect width="117.816" height="117.816" transform="translate(717.87 487.125) rotate(90)" fill="#151718"/>
<rect width="117.816" height="117.816" transform="translate(598.054 -111.938) rotate(90)" fill="#151718"/>
<rect width="117.816" height="117.816" transform="translate(598.054 7.875) rotate(90)" fill="#151718"/>
<rect width="117.816" height="117.816" transform="translate(598.054 127.688) rotate(90)" fill="#151718"/>
<rect width="117.816" height="117.816" transform="translate(598.054 247.5) rotate(90)" fill="#151718"/>
<rect width="117.816" height="117.816" transform="translate(598.054 367.312) rotate(90)" fill="#151718"/>
<rect width="117.816" height="117.816" transform="translate(598.054 487.125) rotate(90)" fill="#151718"/>
<rect width="117.816" height="117.816" transform="translate(478.238 -111.938) rotate(90)" fill="#151718"/>
<rect width="117.816" height="117.816" transform="translate(478.238 7.875) rotate(90)" fill="#151718"/>
<rect width="117.816" height="117.816" transform="translate(478.238 127.688) rotate(90)" fill="#151718"/>
<rect width="117.816" height="117.816" transform="translate(478.238 247.5) rotate(90)" fill="#151718"/>
<rect width="117.816" height="117.816" transform="translate(478.238 367.312) rotate(90)" fill="#151718"/>
<rect width="117.816" height="117.816" transform="translate(478.238 487.125) rotate(90)" fill="#151718"/>
<rect width="117.816" height="117.816" transform="translate(358.422 -111.938) rotate(90)" fill="#151718"/>
<rect width="117.816" height="117.816" transform="translate(358.422 7.875) rotate(90)" fill="#151718"/>
<rect width="117.816" height="117.816" transform="translate(358.422 127.688) rotate(90)" fill="#151718"/>
<rect width="117.816" height="117.816" transform="translate(358.422 247.5) rotate(90)" fill="#151718"/>
<rect width="117.816" height="117.816" transform="translate(358.422 367.312) rotate(90)" fill="#151718"/>
<rect width="117.816" height="117.816" transform="translate(358.422 487.125) rotate(90)" fill="#151718"/>
</g>
</g>
<defs>
<filter id="filter0_f_283_997" x="239.083" y="-712.524" width="1438.84" height="1920.05" filterUnits="userSpaceOnUse" color-interpolation-filters="sRGB">
<feFlood flood-opacity="0" result="BackgroundImageFix"/>
<feBlend mode="normal" in="SourceGraphic" in2="BackgroundImageFix" result="shape"/>
<feGaussianBlur stdDeviation="0.761924" result="effect1_foregroundBlur_283_997"/>
</filter>
<linearGradient id="paint0_linear_283_997" x1="469.266" y1="-2.67298e-06" x2="513.023" y2="760.755" gradientUnits="userSpaceOnUse">
<stop stop-color="#0076E2"/>
<stop offset="1" stop-color="white" stop-opacity="0"/>
</linearGradient>
<clipPath id="clip0_283_997">
<rect width="1440" height="496" rx="20" transform="matrix(-1 -8.74228e-08 -8.74228e-08 1 1440 0.00012207)" fill="white"/>
</clipPath>
</defs>
</svg>
